<?xml version="1.0" encoding="utf-8"?>
<!-- Generator: Adobe Illustrator 21.1.0, SVG Export Plug-In . SVG Version: 6.00 Build 0)  -->
<svg version="1.1" id="Layer_1" xmlns="http://www.w3.org/2000/svg" xmlns:xlink="http://www.w3.org/1999/xlink" x="0px" y="0px"
	 viewBox="0 0 641.1 499.1" style="enable-background:new 0 0 641.1 499.1;" xml:space="preserve">
<style type="text/css">
	.st0{fill:#FEFEFE;}
	.st1{fill:#080404;}
	.st2{fill:#0A0606;}
	.st3{fill:#F9F8F9;}
	.st4{fill:#FEFDFD;}
	.st5{fill:#FDFDFD;}
	.st6{fill:#FBF9F9;}
	.st7{fill:#FAF9F9;}
	.st8{fill:#F9F8F8;}
	.st9{fill:#F8F7F7;}
	.st10{fill:#F9F7F6;}
	.st11{fill:#F8F6F6;}
	.st12{fill:#F7F6F5;}
	.st13{fill:#F1EFEE;}
	.st14{fill:#F6F4F4;}
	.st15{fill:#F4F2F3;}
	.st16{fill:#F5F3F2;}
	.st17{fill:#F7F5F4;}
	.st18{fill:#F3F2F1;}
	.st19{fill:#F5F4F2;}
	.st20{fill:#EFEDED;}
	.st21{fill:#F4F2F2;}
	.st22{fill:#F4F3F2;}
	.st23{fill:#F0EEED;}
	.st24{fill:#F0EDEE;}
	.st25{fill:#ECEAE9;}
	.st26{fill:#F3F1F0;}
	.st27{fill:#F1EFF0;}
	.st28{fill:#E6E4E4;}
	.st29{fill:#EFECEC;}
	.st30{fill:#EDECEC;}
	.st31{fill:#F0EEEC;}
	.st32{fill:#F0EEEE;}
	.st33{fill:#F5F2F1;}
	.st34{fill:#EEECEB;}
	.st35{fill:#EBE9E8;}
	.st36{fill:#F2EFEE;}
	.st37{fill:#F4F4F2;}
	.st38{fill:#EEEBEA;}
	.st39{fill:#E9E8E7;}
	.st40{fill:#F7F4F5;}
	.st41{fill:#F6F5F5;}
	.st42{fill:#DAD7D8;}
	.st43{fill:#E9E6E7;}
	.st44{fill:#F2F0EF;}
	.st45{fill:#EDEDED;}
	.st46{fill:#F0EEEF;}
	.st47{fill:#EEEDEE;}
	.st48{fill:#ECE9E8;}
	.st49{fill:#ECEAEB;}
	.st50{fill:#E8E7E5;}
	.st51{fill:#EFEDEE;}
	.st52{fill:#EDEAEB;}
	.st53{fill:#E8E4E3;}
	.st54{fill:#F0EDEC;}
	.st55{fill:#E8E6E5;}
	.st56{fill:#E2DFDE;}
	.st57{fill:#E9E8E8;}
	.st58{fill:#ECEBEB;}
	.st59{fill:#EDEAE9;}
	.st60{fill:#E6E2E2;}
	.st61{fill:#E7E3E2;}
	.st62{fill:#EEEAE9;}
	.st63{fill:#E1DEDD;}
	.st64{fill:#F2EFF0;}
	.st65{fill:#E8E5E5;}
	.st66{fill:#E9E5E5;}
	.st67{fill:#E4E3E3;}
	.st68{fill:#DEDADB;}
	.st69{fill:#EFECEB;}
	.st70{fill:#E6E3E4;}
	.st71{fill:#DFDBDB;}
	.st72{fill:#DFDCDC;}
	.st73{fill:#D0CCCC;}
	.st74{fill:#EEEDEC;}
	.st75{fill:#D5D2D2;}
	.st76{fill:#E8E6E7;}
	.st77{fill:#E4E1E2;}
	.st78{fill:#EDE9E8;}
	.st79{fill:#DFDCDD;}
	.st80{fill:#E2DFE0;}
	.st81{fill:#DDDBDC;}
	.st82{fill:#C9C6C5;}
	.st83{fill:#D7D4D3;}
	.st84{fill:#D3CED0;}
	.st85{fill:#C3BFBE;}
	.st86{fill:#CBC5C5;}
	.st87{fill:#F2ECED;}
	.st88{fill:#D8D4D4;}
	.st89{fill:#CAC6C6;}
	.st90{fill:#C5C5C5;}
	.st91{fill:#9C9897;}
	.st92{fill:#F8F4F4;}
	.st93{fill:#BBBAB9;}
	.st94{fill:#CFCCCC;}
	.st95{fill:#D4D1D0;}
	.st96{fill:#D4D0CF;}
	.st97{fill:#E1DDDF;}
	.st98{fill:#C7C1C3;}
	.st99{fill:#E9E5E4;}
	.st100{fill:#DDD9D8;}
	.st101{fill:#EEEAEA;}
	.st102{fill:#F9F8F6;}
	.st103{fill:#080405;}
	.st104{fill:#0A0506;}
	.st105{fill:#F3F2F0;}
	.st106{fill:#F5F2F2;}
	.st107{fill:#F0ECEE;}
	.st108{fill:#EAE8E7;}
	.st109{fill:#F9F6F5;}
	.st110{fill:#E3E0DF;}
	.st111{fill:#E8E2E2;}
	.st112{fill:#0D0707;}
	.st113{fill:#DEDCDD;}
	.st114{fill:#CECBCC;}
	.st115{fill:#D4D1D2;}
	.st116{fill:#D5D2D1;}
	.st117{fill:#E5E0E2;}
	.st118{fill:#F9F7F7;}
	.st119{fill:#0D0808;}
	.st120{fill:#0E090A;}
	.st121{fill:#0F0B0B;}
	.st122{fill:#0F0D0C;}
	.st123{fill:#120F10;}
	.st124{fill:#100D0D;}
</style>
<g>
	<g>
		<path class="st0" d="M320.9,1c105.3,0,210.6,0,315.9-0.1c3.7,0,4.3,0.9,4.3,4.4c-0.1,163.1-0.1,326.3,0,489.4
			c0,3.4-0.5,4.4-4.3,4.4C426.2,499,215.6,499,5,499.1c-3.5,0-4.1-0.8-4.1-4.1C1,331.7,1,168.4,0.9,5.1c0-4.1,1.4-4.1,4.6-4.1
			C110.6,1,215.7,1,320.9,1z"/>
		<path class="st1" d="M575.1,219c-0.8,5.3-2.1,10.1-7.8,12.3c-4,1.5-6.4,0.2-7.5-4.3c-6.2,4.6-11.3,10.2-16.3,15.8
			c-5.4,6.1-6.2,13.4-5.1,21.1c1.2,8.5,0.9,16.9-0.4,25.4c-0.5,2.9-1.7,5.3-4.6,6.5c-4.6-11.3-15.5-15.3-24.7-21.3
			c-9.6-6.2-19.5-11.4-32-8.9c3.3,2.2,6.5,4.3,9.7,6.5c2.3,1.6,4.2,3.6,3.6,6.6c-0.6,3.1-2,5.7-6.1,5.9c8.5,4.6,15.6,10.7,24.2,14.4
			c18.8,8,37.5,16.2,56.2,24.4c1.9,0.8,4.5,1.6,3.5,4.5c-0.8,2.4-3.1,2.2-5.1,1.6c-18.9-5.7-39.2-6-57.7-13.5
			c-8.5-3.4-17-6.6-25.5-10c-1.9-0.8-3.9-1.8-5.5-0.2c-4.1,4.4-8,2.1-10.7-1c-8.6-9.5-20.4-12.3-31.6-16.6c-1.6-0.6-2.4-0.1-3,1.5
			c-0.6,1.5-1.6,2.9-2.2,4.4c-1.7,3.9-4.4,4.7-8.5,3.6c-10.2-3-20.1-6.7-30.1-10.5c-1.7-0.7-3.2-0.9-5.2-0.3
			c-8.5,2.6-16.8,6.6-26,6.5c-0.2,0-0.3,0-0.5,0c-0.8,0-1.3,0.6-1.1,1.3c1,5.3-6.5,6.8-5.4,11.9c1.4,6.3,2.9,12.5-3.7,17.1
			c-1.5,1-0.2,2.5-0.3,3.7c-0.4,4.9,1.1,10.7-5.5,13c-1.4,0.5-0.6,1.7-0.6,2.6c0.3,5.2-0.5,10-5.4,13.1c-1.3,0.8-1,1.9-1.2,3
			c-1.2,6.2-3.1,11.8-9.1,15.3c-2.6,1.6-2.7,5.2-3.8,7.9c-1.8,4.4-4.1,8.1-9.6,7.7c-2-0.1-2.1,1.1-2.5,2.4c-1.2,4.7-3.1,8.9-8.6,9.8
			c-1,0.2-1.2,0.9-1.3,1.8c-1.3,8.6-9,10.5-14.9,15c5.4,2.1,10.1,5.8,15.2,9c16.2,10,16.5,21.8,8.2,36.5c-2.6,4.6-5.2,9.2-7.4,14.1
			c-2.4,5.2-6.4,8.4-11.9,9.8c-11.4,2.8-22.7,2.2-33.6-2.4c-5.5-2.3-11.3-4.4-16-7.8c-9.3-6.6-10.2-16.4-8.5-26.9
			c2.8-17.2,22.3-30.5,37.5-33.6c-6.3-1.2-7.8-5.6-8-10.8c-0.3,0-0.5,0-0.6,0.1c-3.9,1.8-6.8-0.1-10.1-2c-3.2-1.8-5.6,3.8-9.3,1.7
			c-5.9-3.4-9.4-8.2-9.1-15.2c-9.2,1.1-12.4-1.5-13.1-10.5c2.7-0.3,3.5,2.2,5,3.6c1.4,1.2,2.6,2.8,4.7,1.8c1.2-0.6,1.3-1.9,1-3.1
			c-0.6-2-2-3-4.1-2.7c-1.4,0.2-3.2,0.9-3.6-1.3c-0.3-1.8,0.9-3.1,2.4-4c3.1-1.8,7.5-0.7,9.9,3.3c1.9,3.2,4.9,4.7,7.5,6.9
			c6.5,5.7,15.5,7.6,21,14.6c1.1,1.4,3,1.4,4.6,1.8c2.3,0.6,4.4,1.3,6.3,2.8c1.6,1.2,2.5,4.3,5.1,3.1c2.9-1.3,6.6-1,8.4-4.7
			c1.3-2.7,3.6-4.9,6.7-5.5c1.3-0.3,2.1-0.8,2.5-2.1c1.2-4.2,3.6-7.4,7.4-9.7c1.6-0.9,1.9-2.5,2.4-4.2c1.7-5.9,4-11.3,10.6-13.5
			c1.2-0.4,2-1.3,2.2-2.5c0.8-4,3.5-6.7,6.3-9.4c2-1.9,3.5-3.9,4.3-6.6c0.6-2.1,1.5-4.2,3.2-5.6c2.6-2.3,3.4-5,2.8-8.5
			c-0.5-2.8,0.2-6,2.2-8c3.1-3.2,3.7-6.7,3.8-10.8c0.1-3,1-5.9,2.7-8.5c1.4-2,2-4.3,0.7-6.6c-1.3-2.3-3.5-1.4-5.4-1.2
			c-1.3,0.1-2.6-0.2-4.4-0.1c1,7.3-3,12.1-8.5,15.9c-1,0.7-2.1,1.3-2.4,2.5c-1.4,6.1-6.9,9.7-9.2,15.3c-0.2,0.6-0.6,1.2-1.2,1.6
			c-7.3,5.1-13.8,11.5-23.1,12.9c-3.9,0.6-6.2,2.1-5.4,6.5c0,2.4-0.6,4.6-2.8,5.9c-4.4,2.5-7.2,1-8.5-4.7c0.4-2.8-0.5-4-3.5-3.1
			c-2.1,0.6-4,1.4-6,2.1c-4,0.7-7.8,0.6-11.2-2.2c-1.9-1.6-4.4-1.2-6.6-1.5c-4-0.6-7.9-1.4-9-6.2c1-2.2,2.8-1.1,4.3-0.8
			c1.9,0.4,3.6,1.4,6,1.3c-3.4-2.6-6.5-3.4-10.1-1.2c-5.2,3.2-12.1,1.6-14.7-4.1c-2.3-5.2-8-8.8-7.4-15.4c0.1-1-1-1.7-1.9-2.2
			c-4-2.2-4.4-5.9-5.1-10c-1.3-7.1-3-14.6-9.8-19.3c-1.7,5-2.7,9.8,1.9,14.2c2.6,2.5,2.5,6.1,1.2,9.4c-1.2,3.1-0.3,6,0.1,9.1
			c0.9,6.7,3.6,12.9,4.5,19.7c1,7.9,4.1,15.2,11,20.2c5.9,4.2,6.3,10.6,1.1,14.8c-5.6,2.5-10.5,0.5-11.8-5.2
			c-0.6-2.6-1.5-3.7-4.1-4.5c-4.8-1.4-7.2-8-5.5-14.5c0.6-2.2,1.1-3.2-1.6-4.4c-5.2-2.2-3.3-6.5-2-10.3c0.8-2.4,1.7-3.9-1.4-5.9
			c-3.5-2.2-2.6-7.4,1.6-13.2c-4-1.5-6-4.4-5.6-8.6c0.3-3.9,2-7.3,5-10.3c-6.9,0.3-9.9-5.5-7.3-12.5c0.5-1.3,3.6-3.2,0.5-4.2
			c-3.2-1.1-4.3-7.7-9.7-3.5c-3.6,2.8-8.4,3-12.7,4.2c-19.2,5.4-38.4,10.7-57.6,15.9c-2.6,0.7-5.2,1-7.9,1.2
			c-5.4,0.6-10.6,0.9-15,5.3c-3.3,3.4-8.1,4-12,0.3c-1.3-1.2-2.4-0.7-3.6-0.6c-14.7,1.5-29.3,4.2-43.9,6.5
			c-4.6,0.7-9.3,0.9-13.9,1.3c-1.4,0.1-2.9-0.1-3.4-1.5c-0.6-1.7,0.8-2.4,2-2.9c20.3-8.1,39.5-18.8,60.9-26.4
			c-3.9-2.8-7.3-5.8-11.3-8c-3.1-1.7-2.9-2.8-1.4-5.7c4.2-8.1,11.9-7.8,18.9-7.9c4.2-0.1,6.8,4.3,9.9,7c1,0.8,0,2.2-0.8,3.1
			c-1.9,2.1-3.7,4.1-5.6,6.2c3.1,2,5.6,0.6,8.8-0.4c8.9-2.6,17.3-6.7,26.2-9.3c8.1-2.3,16-5.2,24.1-7.8c10.4-3.3,20.4-7.8,31-10.4
			c3.6-0.9,3.4-5.3,5.1-7.9c1.1-1.6-1.7-2.4-2.9-3.3c-8.1-6.1-14.2-13.9-20.8-21.4c-2.3-2.6-2.4-6.1-3.4-9.3
			c-2.3-6.8-4.8-13.4-7.1-20.2c-0.7-2-1.7-2.9-3.8-3.2c-11.5-1.4-22.7-2-34.1,1.7c-18.9,6.1-30.3,0-39.5-13.9
			c-4.6-7-2.4-15.5-1.3-23.3c1-7.3,5.3-12.3,12.2-15c2.8,0.3,1.9,2.2,1.4,3.7c-0.4,1.3-1.9,1.9-2.4,3.1c-9.8,12.3-8.2,28.2,3.7,37
			c6.4,4.7,13.5,4.8,20.5,2.8c9.5-2.6,19-4.9,29-4c10.8,0.9,21.6,1.5,31.9,5.3c0.6,0.2,1.3,0.4,1.9,0.7c1.7,0.8,3.7,1.6,3.1,3.9
			c-0.6,1.9-2.6,1.8-4.3,1.6c-3.1-0.5-6.3-0.7-9.5-0.6c-2.2,0.1-3,1.1-2.1,3.2c2.8,6.2,4.3,13,6.6,19.4c0.6,1.6,1.1,3.3,2.3,4.4
			c6.4,6.3,11.4,14,18.9,19.2c6.1,4.3,11.9,9.1,18,13.5c2.9,2.1,6,3.6,9.2,5c1.4,0.6,2.7,1.3,3.9,2.2c1.5,1.2,3,2.5,2,4.6
			c-1,2.1-3,1.7-4.8,1.2c-0.6-0.2-1.2-0.5-1.9-0.4c5.1,5.3,6.9,12.4,9.5,18.8c1.7,4.2,4.2,6.8,8.2,7.8c2.9,0.7,5.9,1.2,8.9,1.2
			c14.1-0.3,28,2.6,42.3,1.4c16.7-1.4,33.6-0.4,50.5-0.2c4.3,0,7-1.1,9.3-5c2.8-4.9,6.9-8.9,10.3-13.4c1.6-2.1,2.6-4.1,2.4-6.8
			c-0.7-7.4,1.5-13.2,9.2-15.7c1.6-0.5,2.5-1.6,2.4-3.4c-0.4-7.2,4.6-10.2,10.2-12.4c1.9-0.7,3.6-1.2,4.9-3c3.9-5.6,9.5-7,15.9-5.8
			c2.9,0.5,4.9-0.5,7.5-1.3c8-2.6,13.5-6.9,16.2-15.2c1-3.1,3.1-5.5,2.7-9.4c-0.5-5.3,3.2-9.2,7.1-12.6c2.2-1.9,5.3-3.8,3.8-6.8
			c-1.3-2.6-4.8-1.2-7.4-1c-8.7,0.8-16.4,4.4-23.9,8.3c-1.9,1-3.8,2.1-6,2.4c-1.7,0.2-3-0.3-3.7-1.9c-0.6-1.4-0.2-2.6,0.7-3.7
			c0.5-0.6,1.2-1.1,1.9-1.6c15.5-9.4,31.8-14.4,50-9.1c4.6,1.4,9.4,2.1,14.2,2.8c14.4,2.2,22.1-2.6,26.3-16.6
			c1.5-5.1,2.5-10.3,0.6-15.7c-1.7-5-4.9-8.2-9.2-11.2c-8.4-5.9-16.8-6.1-26.1-3.4c-10.8,3.1-22,3.6-33.2,3.9
			c-16.3,0.4-32.6,0.8-48.9,0.2c-2.3-0.1-4.7,0-6.9-0.7c-10.7-3.3-21.9-3.4-32.7-6.5c-15.3-4.5-31.2-4.8-47-4.8
			c-4.5,0-4.5,0-7.4-1.8c0.9-2,2.8-2.2,4.5-2.7c10.7-3.7,21.7-2.8,32.6-1.7c9.8,1,19.2,4.4,28.8,5.8c15.4,2.2,30.7,6.3,46.6,4.8
			c3.6-0.3,7.3,0,11-0.1c1.6,0,3.6,0.2,4.3-1.8c0.7-2.1,1.3-4.3-0.5-6.1c-2.5-2.6-4-5.3-2.6-9c0.6-1.5-0.4-2.5-1.4-3.4
			c-6.1-5.5-12.7-10.2-19.6-14.6c-0.3-0.2-0.6-0.5-0.9-0.5c-6.5,0.1-12.8-1.3-19.2-1.8c-0.3,0-0.6,0.2-1,0.3c-4.3,1-22-2.4-25.4-5.2
			c-2.7-2.2-5.3-2.1-7.7-0.2c-10.2,8.2-22.5,12.2-34.5,16.8c-18.1,6.9-36,14.1-53.4,22.6c-5,2.4-10.2,4.1-15.7,5
			c-21.2,3.8-42.5,6.5-63.8,8.7c-10.4,1.1-20.7,3.3-31.3,3c-7.7-0.2-15.2-1.8-22.8-2.4c-4.4-0.4-8.2,1-12.2,1.8
			c-3.2-0.6-2.8-2.6-1.8-4.8c4.2-3.6,9.2-3.5,14.2-2.9c13.9,1.6,27.8,2.8,41.8,1.1c25.1-3.1,50.2-6.2,75.2-10.1
			c8.7-1.4,16.8-4.6,24-9c11.6-7.1,24.8-10.1,36.9-15.9c11.8-5.7,23.7-11.1,36.2-15.2c3.5-1.1,4.9-2.9,1.9-6.5
			c-2.9-3.5-1.8-6.9,2.5-7.9c2.3-0.6,2.5-2.3,3.7-3.5c2.5-2.8,4.3-7.2,9.5-4.9c1.8,0.8,1.8-0.9,2.3-1.7c5-8.8,12.6-14.9,20.7-20.5
			c8.8-6.2,17.2-13,26.9-17.9c3.2-1.7,6.5-2.8,9.9-3.8c-0.1,3.7-1.7,7-3.5,10.2c-0.8,1.5-1.6,2.9-2.5,4.3c-1.8,2.7-2.6,4.4,1.6,6.1
			c5,2.1,7.8,12.2,5.5,17.1c-2.7,5.9-7.9,7.8-15.1,5.4c-1.5-0.5-3-1.2-4.6-1.8c-0.1,1.9-1.1,3.6-2.2,5.6c3.5,0.6,7.1,0.9,9.2,4.1
			c0.5,0.8,1.3,0.7,2.1,0.7c5.3,0.1,10.2,0.4,13.4,6.3c1.2,2.4,5.4,3.2,8.9,3.4c4.3,0.2,9,0.5,9.3,6.7c0.1,1.4,1.3,1.4,2.2,1.7
			c3.3,1.2,5.4,3.9,5.7,7c0.6,6,4.7,12.5-1.5,18.1c-1,0.9-0.3,1.8,0.2,2.7c1.3,2.5,1.8,4.9,1.1,8c-0.8,3.3,1.8,4.7,5.2,4.5
			c9.2-0.6,18.1-2.5,27-4.4c7.4-1.6,14.1-0.3,20.4,4c4.7,3.2,10.1,4.9,13.5,10.4c10.7,17,0.8,46-23.1,48.1
			c-6.3,0.6-12.3,0.2-18.3-1.3c-2.2-0.5-3.9-1-4.1,2.1c0,0.2-0.1,0.3-0.1,0.5c-0.4,2.3-4.7,2.7-3.3,5.5c1.3,2.7,3.3,5.5,5.7,7.3
			c5.3,4.2,10.6,8.4,17.1,10.9c8.9,3.3,17.2,2.8,25.5-1.4c2.2-1.1,4.1-1.3,6.2,0.9c13,13.2,9.9,13.8,31.7,8.2
			c11.7-3,23.1-7.2,34.1-12.5c1.7-0.8,2.1-1.6,2.3-3c0.3-2.1-1.6-1.1-2.4-1.5c-1-0.5-2.2-0.6-3.4-0.7c-4.1-0.3-4.8-2.3-3-5.7
			c1.2-2.4,2.4-4.7,3.6-7.1c3.4-6.7,7-8.5,14.4-7.5c0.8,0.1,1.6,0.3,2.4,0.5c9,2.2,9.7,4.1,4.5,11.9c-1,1.5-2.1,2.9-4,5.4
			c9.1-2.6,17.2-4.8,25.1-7.3c9.5-3,19.3-5,29-7c1.3-0.3,2.8-0.6,3.4,1.1c0.6,1.6-0.8,2.3-1.9,3.1c-4.9,3.7-9.8,7.3-15.2,10.4
			c-8.5,4.9-16.7,10.2-25.1,15.3c-1,0.3-2.1,1.7-3.1,0.5c-0.8-0.9-0.5-2.2,0.1-3.3c0.7-1.4,2-2.2,3.2-3.1c2.8-1.9,5.5-3.8,8.3-5.5
			c7.1-4.3,14.4-8.2,20.9-12.1c-10.4,1.9-20.9,6.6-32,9c-5.1,1.1-5,1.3-2.8,5.9C575.8,209.3,576.5,214,575.1,219z"/>
		<path class="st2" d="M76,136c1.2,1.1-0.7,3,1,4c0.6,0.8,1.3,0.7,2.2,0.5c15.2-3.4,22,8.6,21.6,19.4c-0.2,6.4-1.8,12.9-9.1,15.8
			c-8.2,3.3-15.8,3-23.1-2.2c-3.1-2.2-4.4-5.3-4.1-9c0.6-6.7,0.8-13.6,5.6-19.2c0.3-0.4,0.2-0.9-0.2-1.3c-0.2-2.3,5.4-2.6,2-6
			C73.1,136.9,74.5,136.2,76,136z"/>
		<path class="st3" d="M575.1,219c0.2-7.2-1.8-13.7-6-19.7c14.9-2.7,28.4-9.1,44.3-11.5c-7,5.2-13.8,8.5-20.3,12.4
			c-5.3,3.2-10.4,6.5-15.6,9.8c-1,0.6-2.2,1.4-1.6,2.7c0.6,1.5,2.1,0,3.1,0.6c-0.4,0.9-1,1.6-0.6,2.7
			C579.8,219.6,577.8,219.6,575.1,219z"/>
		<path class="st0" d="M70,144c0.9-0.4,1.8-0.8,4.1-1.8c-6,6.6-7.6,13.4-8.7,20.6c-0.7,4.3,0.7,7.3,4.1,9.9
			c6.9,5.1,17.2,5.5,24.3,0.8c4.3-2.9,7-12.1,5.4-18.2c-3.3-12.2-9.4-15.9-21.8-13.3c-0.7,0.2-1.5,0.2-2.3,0.3
			c0-1.6,1.6-1.2,1.9-2.2c6.7-4.2,13.9-2.5,20.8-1.5c12.3,1.8,24.5,1.5,36.8-0.1c15.2-2,30.4-3.5,45.6-5.6
			c18.4-2.6,36.9-5,53.7-14.1c17.4-9.6,36.6-14.7,54.7-22.7c7.8-3.5,16-6.2,22.6-12.3c2.1-1.9,5.9-3.5,8.8,0.8
			c2.3,3.5,6.2,4.5,10.2,2.6c1.7-0.8,2.5-0.6,4.1,0.6c4.1,3.1,8.8,2.7,13.1,0.4c1.6-0.8,1.9-0.9,3.2,0.7c2.3,3.1,6,2.8,9.1,1.2
			c2.2-1.2,3.5-0.4,5.3,0.6c8.2,5,15.8,11,23.5,16.7c2.1,1.6,0.5,1.9,0,2.7c-1.5,2.6-2.2,5.6,0.6,7.1c4.9,2.5,2,6.4,2.6,9.7
			c0.3,1.8-1,1.7-2.2,1.7c-16.6-0.4-33.1,0.6-49.7-2.6c-18.7-3.6-37.2-8.8-56.5-8.7c-7.1,0-13.8,2.4-20.6,4.5
			c13.7-0.5,27.3,0.8,40.9,2.1c1.5,0.1,3,0.4,4.4,0.8c14.6,4,29.5,6.2,44.3,9c6.8,1.3,13.9,1,20.9,0.9c19.8-0.4,39.6-0.1,59.3-3.4
			c3.8-0.6,7.5-1.6,11.2-2.6c11.1-3.2,19.9,2.5,27,9.2c6.9,6.5,6.6,15.8,3.8,24.8c-5.1,16.3-14.7,19.9-33.5,16.1
			c-10.1-2-20-5-30.5-3.7c-10.5,1.3-19.5,6.5-28.5,11.3c-1.2,0.7-2.6,1.9-1.4,3.7c1,1.5,2.3,0.8,3.5,0.2c5-2.3,9.9-4.8,14.9-6.8
			c8.1-3.3,16.4-5.2,25.3-3.4c-1.7,4.5-4.2,7.7-7.5,10.9c-3.9,3.7-8.4,8.2-4.3,14.7c1,1.5-0.6,1.6-1.2,2.1c-3.5,2.9-5.4,6.5-6.2,11
			c-0.5,2.7-1.1,5.2-5.5,5c-4.7-0.2-8.2,5.6-11.7,6c-3.8,0.4-8.3-2.5-12.8-0.8c-3.3,1.2-6.7,2.6-7.1,6.8c-0.2,2.3-1.6,0.9-2.5,1
			c-5.1,0.4-8.6,3.3-11.2,7.4c-0.7,1.1-1.4,2.5-0.5,3.7c2.8,3.7-1.1,5-2.7,5.6c-7.3,2.8-10.7,7.9-8.7,15.4c0.6,2.3-0.1,3-1.2,4.5
			c-4.5,6.3-10.6,11.4-13.6,18.7c-1,2.5-2.9,2-4.4,2c-24.8,0.1-49.6,0.5-74.4,0.4c-11-0.1-22.1-1.6-33.2-2.2
			c-2.6-0.2-2.9-3.6-5.1-4.4c-2.4-1-3.8-2.2-2.1-4.9c0.3-0.4,0.1-1.6-0.3-1.9c-5.8-4.3-3.9-13.4-10.7-17.1c-0.8-0.4-1.2-1.5-2.4-3.1
			c3.2,1,5.6,1.7,7.9,2.6c1.2,0.5,2.2,0.9,3-0.5c0.8-1.4-0.1-2.2-1-3c-0.4-0.3-0.8-0.6-1.3-0.7c-12.7-4.5-22.6-13.4-32.5-21.8
			c-10.3-8.6-20.8-17.8-23.2-32.5c-0.8-5-3.2-9.7-6.1-14.6c7-0.8,13.3,0.3,19.8,0.3c-3.2-3.5-7.7-4.5-11.7-5.2
			c-17.2-2.9-34.4-6-51.8,0.3c-10.4,3.7-20.5,2.4-28.3-6.5C61.2,169.5,61.5,153.7,70,144z"/>
		<path class="st0" d="M357.2,269c3.3-4.4,4.6-9.3,4-14.7c-0.2-1.8,0.6-2.2,2-2.7c4.7-1.7,8.1-5.1,10.5-9.5c0.4-0.7,0.4-1.8,1.5-1.7
			c6.7,0.6,12.4-1.6,18.3-4.7c2.8-1.5,6.4-2.3,9.3-4.2c2.2-1.5,4.1-3.2,5.3-5.8c1.3-2.9,4.9-3.4,7.2-5.4c3.4-2.9,5.2-5.9,3.9-10.4
			c-0.6-2-0.7-3.6,1.8-4.8c3.2-1.6,4.8-4.9,6.5-7.8c8.4,11.8,19.9,17.6,34,19.3c5.7,0.7,10.3-2.2,15.4-3.5c1.3-0.3,2.6-1.7,3.8,0.3
			c9.4,15,22.6,13.1,36.5,8.2c9.4-3.3,18.9-6.3,28-10.4c0.1-0.1,0.3-0.1,0.5-0.1c2.6-0.3,4-4.6,6.8-2.9c2.9,1.8,3.8,5.6,5.5,8.6
			c0.5,0.8,0.5,1.9,0.9,2.8c1.3,2.9,2.1,4.2-2.4,5.8c-14.2,4.9-24.8,23.2-23.7,38.1c0.5,6.9,0.1,13.9,0.1,21.7
			c-7.5-10-18.2-15.2-27.1-22.7c-4.9-4.1-10.4-5.8-17-5.8c-16.5,0-32.9-0.8-49.4-1.4c-4.5-0.2-7.5-3.5-10.4-6.4
			c-8.1-8.2-18.1-11.4-29.2-12.1c-2.2-0.1-4.3,0.1-6.7,1.3c2.2,2.1,4.7,3,7.5,3.3c10.2,1.1,19.4,4.3,26.6,12.2
			c2.5,2.7,5.6,4.7,9,6.1c4.9,2,8.7,5.5,12.6,8.8c3.7,3.2,7.7,5.8,12.3,7.4c1.1,0.4,3.2,0.5,1.8,2.5c-3.3,5-3.6,10.8-3.9,17.2
			c-8.5-8.1-18.5-11.6-28.7-14.1c-16.2-3.8-32.1-8.9-48.6-11c-5.4-0.7-10.9-1.1-16.4-1.8c-2-0.3-3.5,0.7-5.2,1.4
			C358.7,271,357.8,270.5,357.2,269z"/>
		<path class="st4" d="M216.7,380.7c4.3-8.1,3.6-10.8-4.1-15.3c-2.2-1.3-3.9-2.4-3.9-5.5c0.1-4.2-5.6-6.2-5-10.7
			c0.9-7-4.5-12.6-3.8-19.5c0.1-0.9-0.2-2.1-0.7-2.9c-2.1-3.5-2.2-6.8-0.2-10.6c2.2-4.2-0.1-7.9-3.4-10.5c-2.5-2.1-2.9-4.2-1.5-6.9
			c1.3-2.6,1.4-5.4,1.1-8.3c5,1.3,5.5,7.5,10.5,8.6c0.8,0.2-0.2,1.4-0.4,2.1c-1,3.8,1.9,5.8,3.3,8.6c1,1.9-2.4,6.6,0.3,8.6
			c4.5,3.4,6,7.6,7.8,12.6c1.2,3.2,3.9,6.4,5.8,9.8c2.3,3.9,8.4,4.9,13.4,2.8l-0.1-0.1c1.5,4.8,4.4,6.6,11.1,6.6
			c2.3,0,4-0.1,5.8,2.2c2.5,3.2,6.7,1.6,10.3,1.7c0.3,0.4,0.4,0.9,0.3,1.4c-2.5,4.3-1.5,9.8-4.6,14c-0.8,1.1,0.2,2.6,0.9,3.7
			c1.1,1.9,1.2,3.7,0.5,5.7c-1.3,3.8,0.2,6.6,3.9,7.8c2.3,0.7,3.8,1.7,4.4,4.2c0.9,3.7,3.7,4.6,7,3.6c2.5-0.7,4.8-0.7,7.3-0.4
			c4.5,0.5,8.5-3.4,7.6-7.6c-0.7-3.1,0.3-5,2.2-7.1c3.2-3.6,3.1-6.2-0.5-9.3c-1.8-1.5-2.3-2.9-2-5.1c0.3-3.4-0.5-6.5-4.9-6.4
			c-3.8,0.1-1.8-3.2-2.9-4.7c-1.3-3.2,1.3-6.8,4.9-6.8c0.8,0,1.8,0.6,2.4,0.4c8.4-3.7,16.9-7.6,22.5-15c2.1-2.8,5-5.4,6.3-8.8
			c1.9-5.1,5.7-8.4,9.5-12c3.3-3.1,6.6-7.1,2.8-12.2c-0.5-0.6-0.7-1.1,0-1.6c0.7-0.5,1.2-0.2,1.8,0.2c2.1,1.6,4.4,0.9,6.7,0.7
			c1.5-0.1,3.1-2.2,4.5,0.7c1.3,2.7,2.5,5.4,0.6,8c-3.3,4.4-4.8,9-3.2,14.3c0.5,1.6-0.5,2-1.4,2.7c-4.3,3-5.6,7.2-4.6,12.2
			c0.5,2.6,0.6,4.7-2.2,6.3c-1.4,0.9-2.9,2.7-3.2,4.3c-1.1,5.2-4.9,8.3-8.1,12c-3.6,4.2-4.4,10.5-11.1,12.5
			c-2.2,0.7-4.3,4.2-4.4,6.9c-0.2,5-3.1,7.4-6.6,10c-2.9,2.1-4.5,5.3-4.3,9.1c-3.3,0-7,0.8-7.9,3.9c-1.7,6.2-8,4.9-11.5,8
			c-1.3,1.2-1.9-0.3-2.5-1.3c-0.8-1.7-2.1-3.6-3.7-3.8c-7.3-0.9-11.3-7.9-17.3-9.7c-7.2-2.2-10.4-10.2-18.2-10.7
			c-0.9-0.1-1.6-3.3-2.5-4.9c-1.5-2.7-3.8-4.3-6.9-3.9c-2.5,0.3-4.3,1.6-4.6,5.1c3.2-1.9,6.3-3.3,8.3,0.8c1,2,2,4.2,0,5.9
			c-2.1,1.8-4.4,1-6.4-0.5C219.7,384.9,219.1,381.9,216.7,380.7C216.6,380.6,216.7,380.7,216.7,380.7z"/>
		<path class="st0" d="M252.9,347c-2.7-4.6-6.9-7-11.9-7.9c-1.9-0.3-2.6-0.6-3.1-2.6c-0.8-3.5-4.3-3-6.9-3.7
			c-1.8-0.4-3.9,0.1-3.4-3.6c0.6-4.1-4.5-5.9-6-8.9c-1.3-2.6,0.8-7.2-2.7-9.7c-2.2-1.6-4.1-2.3-2.6-6c1-2.5-0.7-5.5-4.2-6.6
			c12.3,0.1,24.4,1.2,37.2,3.4c-5.8,3.8-9.2,9.4-13.9,13.7c-1.5,1.4-4,2.7-2.6,5.3c1.5,2.8,4.1,1.5,6.3,1c7-1.7,13.9-3.7,20.1-7.2
			c7.6-4.3,16.2-7,22.8-13.2c0.5-0.5,1.5-0.8,2.2-0.8c13.6,0.6,27.2-1.3,41.7-2.2c-5.1,4.4-9.6,8.2-8.6,14.9
			c0.3,1.7-1.2,1.2-1.9,1.5c-4.9,1.9-8.3,4.9-7.8,10.7c0,0.2,0.1,0.4,0.1,0.5c-3.5,3.5-6.7,7.6-10.8,10.4c-2.4,1.6-6.2,1.2-8.1,4.1
			c-0.4,0.6-0.9,1-1.6,0.6c-6.9-3.9-11.9,0.6-16.9,4.1c-1.5,1.1-2.1,2-4.4,0.8c-4-2-8.6-2.9-12.2,1.4
			C253.5,347.4,253.2,347.4,252.9,347z"/>
		<path class="st5" d="M178.7,267.6c-1.5,1.9-1.2,4.2-0.9,6.2c0.7,4.4-1.1,6.1-5.2,7.3c-27.8,8.2-55.9,15.4-85.1,22.3
			c3.3-6.7,1.2-12-1.9-17.3c10.8-4.1,21.5-7.4,32.2-10.8c15.9-5.1,31.7-10.9,46.8-18.1c3-1.4,4.6-1.6,6.2,1.7
			c1.4,2.8,3.6,5.2,6.9,6.1c1.5,0.4,1.8,1.3,1,2.6L178.7,267.6z"/>
		<path class="st0" d="M273.4,435.2c9.5-1.4,15.1,5.1,21.7,9.3c1.2,0.8,1.1,2.4,0.8,3.7c-0.6,2.4-0.9,5.3-2.5,6.9
			c-5,5-8.4,10.9-11,17.3c-1.3,3.3-3.6,3-6,2.4c-6.9-1.8-14-2.9-20.5-6c-5.3-2.5-7.7-7.3-8.5-12.7c-0.8-5.4,0.4-10.5,5.1-13.7
			C259,438,265.7,434.4,273.4,435.2z"/>
		<path class="st5" d="M365.9,38.1c-8.2-1.3-12.9,1.6-12.6,7.9c0.2,3.8,3.4,6,5.5,8.7c1.4,1.7,1.5,2.1,0.2,4.1
			c-3.9,5.9-7.9,12.2-3,19.8c-1.1,0.5-2.4,0.6-3.1,1.4c-2.4,2.5-4.5,1.9-7.1,0.3c-3.3-2-6.4-0.2-9.8,0.6c-1.9,0.5-4-4.7-8-4.6
			c-2.1,0.1-4.7,2.5-6.1,0.3c-1.1-1.7,1.5-3.7,2.1-5.8c2.4-9.6,8.2-17.1,16.1-22.7c10.8-7.6,20.7-16.4,33.7-22.4
			c-3.2,5.2-5.2,10-5.9,15.2C365.4,41.1,367.3,38.5,365.9,38.1z"/>
		<path class="st2" d="M282.1,353.8c1.5,1,0.4,2.7,1.1,4.2c1.9-0.9,4-2.5,5.8-0.5c2.1,2.3,3.3,5,2.2,8.2c-0.4,1.3-1.2,2.1,0.9,3.1
			c5.1,2.6,5.4,8,1,11.7c-1.8,1.6-3,2.2-1.7,5.3c2.2,4.9-4.4,11-9.9,9.3c-1.9-0.6-3.1-0.6-4.9,0.3c-4.7,2.1-8.3,0.2-9.6-5
			c-0.4-1.7-1.1-1.8-2.6-2.1c-5.5-1.3-7.3-4.9-5.5-10.4c0.1-0.3,0.6-0.7,0.5-0.8c-3.5-5.1-1.1-9.8,0.4-14.9c0.8-2.7,0.8-5.4,3-7.4
			c2.2-2.4,4.9-2,6.5,0.1c1.7,2.3,2.3-0.4,3.4-0.2c0.6,2.2-0.4,5.5,3.5,5.6C280.9,360.5,282.4,357.9,282.1,353.8z"/>
		<path class="st6" d="M19.8,311.6c15.8-6.9,31.3-13.6,46.6-20.6c2.5-1.1,3.2-0.5,4.7,1.2c2.2,2.5,2.5,5.5,2.4,8.3
			c0,2.4-1,4.9-4.3,5.2c-16,1.5-31.8,4.5-47.7,6.9C21.3,312.7,20.8,312.2,19.8,311.6z"/>
		<path class="st7" d="M536.6,318.6c-18.7-2.9-35.8-9.4-52.8-15.7c-1.7-0.6-3.3-1.6-5.1-2c-2.2-0.5-5.1,0.6-4.6-3.6
			c0.7-5.4,3.4-9.5,6.9-10c0.9-0.1,1.2,0.2,1.7,0.6c13.6,14.4,32.4,19.5,49.4,27.9C533.5,316.6,535.3,316.9,536.6,318.6z"/>
		<path class="st8" d="M564.1,227.9c0.8-8.9-4-15.3-7.9-22c-1.4-2.4-1.3-3.9,1.1-5.1c2.3-1.2,4.9-3.3,7.1-0.3
			c4.2,5.7,7.1,11.9,5.9,19.3C569.5,224.2,568.6,225.6,564.1,227.9z"/>
		<path class="st9" d="M357.2,269c0.9,0.3,1.9,0.7,2.8,1c-2.2,2.3,0.5,2.2,1.4,2.6c6.7,3.3,14.1,3.3,21.3,4.3
			c0.9,0.1,1.8,0.2,2.9,1.3c-3.7,1.1-7.3,2.2-11,3.3c-5.7,1.6-11.5,3.1-17.2,4.8c-2.5,0.8-3-0.4-2.1-2
			C358.3,279.5,357.6,274.3,357.2,269z"/>
		<path class="st8" d="M481.7,284.3c-8.4,2.4-11.6,7.4-10.8,16.1c0.1,1,1.1,2.1-0.5,2.9c-1.4,0.7-2.3-0.2-3.1-0.9
			c-2.3-2.1-4.2-4-3.7-7.9c0.7-4.9,0.4-9.9,2.7-14.5c1.3-2.6,2.9-3.6,5.2-1.2C474.2,281.5,477.6,283.1,481.7,284.3z"/>
		<path class="st10" d="M423.8,286.2c-1.7,7.4-1.6,7.2-8.6,5.3c-7-1.9-14-3.8-20.6-7.2c-1.4-0.7-3.1-0.7-5-1.1
			c1.9-2.5,4-3.8,7.1-3.1C405.7,282.1,414.7,284.1,423.8,286.2z"/>
		<path class="st11" d="M364,86.3c5,1.3,9.5,1.5,13.8-1.7c1.6-1.2,3.8,0.7,3.5,2c-1.1,4.8,2.6,5.9,5.4,7.1c4.6,2,4.7,5.9,5.3,9.8
			c0.1,0.7-0.4,1.6-0.9,2.2c-0.6,0.7-1.1-0.1-1.6-0.6C382.3,97.3,373.2,92,364,86.3z"/>
		<path class="st12" d="M74.4,308.7c4.9-7.6,4.5-14.2-1.1-20.3c-1-1.1-1.4-1.9-0.5-3.3c1.1-1.7,2.1-1,3.3-0.6
			c6.4,2.1,8.4,6,8.9,12.7C85.4,301.8,80.5,307.1,74.4,308.7z"/>
		<path class="st12" d="M244.2,314c2.2-4.8,7-7.3,8.2-12.3c0.2-0.9,1.2-1,2.1-1c6.2,0,12.5,0,19.4,0C263.7,305,254.9,311,244.2,314z
			"/>
		<path class="st13" d="M361.8,40c-2,4.7,4.6,14.6,9.8,14.5c2,0,3.3-1.4,4.2-3.1c1-1.8,1.1-3.5-0.4-5c-0.8-0.8-1.7-1.6-2.7-2.1
			c-1.3-0.7-1.7-1.3-0.9-2.7c0.7-1.2,1.5-0.9,2.5-0.6c2.4,1,5.9,7.8,5.3,10.4c-1.1,4.3-4.3,6.3-8.5,5.3c-5.8-1.3-10.2-4.6-13.5-9.4
			C355,44,357.3,40.2,361.8,40z"/>
		<path class="st14" d="M250.5,469.2c-5.8,2.2-10.5,0.3-14.8-1.1c-3.5-1.1-2.6-5.5-2.9-9.5c3.8,2.8,7.4,4.4,12,4.2
			C247.3,462.6,247.6,467.1,250.5,469.2z"/>
		<path class="st15" d="M451,263.8c6.5,0.4,12.1,1.4,18.2,1.1c-1.7,3.4-2.9,6.5-0.9,10.3C462.8,271.4,456.1,269.9,451,263.8z"/>
		<path class="st16" d="M178.6,267.7c1-0.8,1.5-2.3,3-2.5c1.2,4.6,4.9,7.7,6.9,11.8c1,2,3,4.9,1,6.3c-2.2,1.6-4.3-1.2-6.2-2.7
			c-1.8-1.5-2-3.7-2.3-5.9c-0.3-2.5-0.1-5.3-2.4-7.2C178.7,267.6,178.6,267.7,178.6,267.7z"/>
		<path class="st17" d="M235.3,388c3.8,2.1,6.9,4.4,8.2,8.4c0.7,2.2,0.7,4.4-1.4,5.7c-2.4,1.5-3.5-0.7-4.9-2
			C233.7,396.7,232.8,392.7,235.3,388z"/>
		<path class="st18" d="M272.1,421.2c-4.6,3.3-8.7,6.4-10.2,12c-0.5,1.8-3.4,2.2-5.5,3C257,424.5,259.5,422,272.1,421.2z"/>
		<path class="st16" d="M335,293.7c2.7-2.4,4.1-4.9,4.9-7.8c0.8-3,4.7-3.3,5.8-6.3c-0.1,2.7,4,4,1.4,7.7
			C344,291.6,341.4,295.5,335,293.7z"/>
		<path class="st19" d="M281.8,422.6c-3,2.6-5.1,4.8-6.6,8c-1.7,3.6-5.7,0.6-8.7,2.1C270.2,423.3,275.3,419.8,281.8,422.6z"/>
		<path class="st20" d="M173.4,245.6c3.8,1.9,5.9,3.8,7.4,6.1c1.5,2.3,1.8,5.2,0.1,7.9c-0.8,1.2-1.8,1.6-2.8,0.6
			c-2.2-2-5.4-3.4-4.5-7.4C174.1,250.7,175.1,248.6,173.4,245.6z"/>
		<path class="st21" d="M483.8,280.3c-5.5-0.2-10.3-4.1-11.6-8.7c-0.6-2.1,0.3-2.4,2-1.7c3.8,1.6,7.3,3.8,10.6,6.2
			c1,0.7,1.6,1.7,1.1,3C485.5,280.5,484.2,280.2,483.8,280.3z"/>
		<path class="st22" d="M297.6,441.6c3.1,1.6,6.1-2.6,8.4,0.9c1.8,2.6,2.5,5.7,1.3,9c-0.5,1.3-1.2,2.4-2.3,1.1
			c-2.1-2.4-7-2.7-6.1-7.6C299.1,444.2,298.3,443.2,297.6,441.6z"/>
		<path class="st22" d="M243.9,451.3c-7-5.2-7-12.4,0.4-17.7C242.8,439.8,246.5,445.2,243.9,451.3z"/>
		<path class="st23" d="M197.7,355.4c-0.1-1.3,0.2-2.4,1.5-2.9c1.3-0.4,1.6,0.7,2.1,1.5c1.7,2.8,3.9,5.5,3.6,9.1
			c-0.2,1.6-0.2,3.7-2.3,3.9c-1.7,0.2-2.6-1.5-3-2.9C198.7,361.2,198.3,358.3,197.7,355.4z"/>
		<path class="st24" d="M367.2,238.9c0.8,0.2,2-0.4,2.6,0.7c0.4,0.9-0.4,1.5-0.8,2.2c-1.9,2.8-4.4,4.9-7.7,5.9
			c-1.3,0.4-2.7,0.2-3.5-1.1c-0.8-1.3,0.3-2.2,1.1-3C361.1,241.2,363.5,238.9,367.2,238.9z"/>
		<path class="st25" d="M258.3,473.3c-5.3,6.6-11.4,6.6-18.7,0.3c4.4,0.7,8.5,1.7,12.3-1.3C253.9,470.7,255.9,472.9,258.3,473.3z"/>
		<path class="st26" d="M287.8,435.4c5.4-5.1,5.4-5.1,13.2,1.5C295.7,440.6,295.7,440.6,287.8,435.4z"/>
		<path class="st27" d="M235.5,443.9c2.2,3.7,1.7,9.4,8.1,9.5c0.3,0,0.6,3.6,0.9,5.6C235,456.1,232.7,452.3,235.5,443.9z"/>
		<path class="st28" d="M398.9,94.3c-6.3,1.5-9.9-2.9-14.2-6.1c5.5-2.1,8.5-0.9,11,4.3c1.7-0.5,0.5-2.8,2.1-3.6
			C399.7,90.7,398,92.8,398.9,94.3z"/>
		<path class="st29" d="M189.1,268.9c1.4,1.1,2.7,2.4,4.2,3.3c2.8,1.5,3.8,3,2.9,6.4c-0.9,3.3,1.1,6,4.2,7.6
			c0.6,0.3,1.8,0.4,1.3,1.6c-0.2,0.4-0.7,1-1,1c-2.6-0.5-6.7-2.1-6.5-3.7c1.1-6.6-3-10.9-5.5-16L189.1,268.9z"/>
		<path class="st30" d="M320,314.5c-0.6-4.6,0.8-7.7,3.4-10.2c1.4-1.3,3-4.3,5-2.5c1.9,1.6-0.3,3.9-1.3,5.7
			C325.6,310.4,322.9,312,320,314.5z"/>
		<path class="st31" d="M292.3,462.3c1.3,6.3,6,11.6-0.1,17.5c-0.6-4.5-0.2-8.6-2.8-12.2C287.9,465.7,290.4,464.4,292.3,462.3z"/>
		<path class="st32" d="M344.3,267.9c0.7-3.5,0.5-7.3,3.3-10.2c0.6-0.6,1.3-1.2,2.1-0.7c0.4,0.3,0.5,1.2,0.4,1.8
			c-0.5,3.3-0.9,6.6-1.6,9.8c-0.2,1,0.1,2.7-2.2,2.4C344.1,270.7,344,269.6,344.3,267.9z"/>
		<path class="st33" d="M278.4,431.9c1.3-1.6,3-3.3,4.5-5.3c1.6-2.3,3.2-1.9,4.6,0c0.7,1,3.3,2.5,1.8,3c-2.5,0.8-2.4,5.1-6,3.8
			C281.5,432.8,279.6,432.3,278.4,431.9z"/>
		<path class="st34" d="M260.6,404.8c2.9-0.1,5,1,7,2c2,1.1,3.3,2.7,3.2,5.1c-0.1,1.2-1.1,1.7-2.1,1.7c-2.5,0.1-4.5-0.8-5.6-3.2
			C262.3,408.7,261.5,406.9,260.6,404.8z"/>
		<path class="st35" d="M247.6,441.6c1.9-5-1.4-11.5,7.5-14.1C251.3,432.2,256,439.1,247.6,441.6z"/>
		<path class="st36" d="M561.3,184c-2.8,3.5-4.3,7.3-9.1,7c-2.2-0.1-2.5-0.6-1.7-2.7C552.5,183.2,556.4,183.4,561.3,184z"/>
		<path class="st37" d="M388.1,233.5c-5.3,3.2-10.4,2.8-15.6,2.3C375.5,230.9,380.5,230.2,388.1,233.5z"/>
		<path class="st38" d="M371.1,76.8c-3.7-0.7-5.1,4.9-9.1,3.2c-1.9-0.8-3-2.5-3.1-4.9c2.6,0.2,5.1,0.7,7.3-0.8
			C369.1,72.3,370.1,74.1,371.1,76.8z"/>
		<path class="st39" d="M196.1,336.6c3.7,3.4,4.4,6.7,3,10.5c-0.5,1.5-1.5,2.2-3,1.8c-1.5-0.4-2.2-1.4-1.9-3
			C194.8,343.1,195.3,340.2,196.1,336.6z"/>
		<path class="st40" d="M186.4,294.8c0.9-2.3,0-5.7,3.2-5.9c2.5-0.2,2.6,2.5,2.5,4.5c-0.2,2.6-0.5,6.1-3.3,6.4
			C186,300.1,187.3,296.5,186.4,294.8z"/>
		<path class="st41" d="M214.6,373.9c-0.6,1.5-0.3,3.3-2.5,3.3c-1.5,0-6.8-4.9-6.3-6.3c0.4-1.3,2-3.4,2.7-2.8
			C210.6,369.8,213.9,370.7,214.6,373.9z"/>
		<path class="st42" d="M207.5,295.6c-3.7,0.2-4.7-1.7-4.7-4.6c0-1.2-0.3-2.8,1.7-2.9c1.7-0.1,6.8,4.1,6.5,5.4
			C210.7,295.6,208.7,295.3,207.5,295.6z"/>
		<path class="st43" d="M191.4,305.8c1.6,2.3,3,4,4,5.8c1.3,2.2,0.2,4.2-1.1,5.9c-0.7,0.9-1.8,1.2-2.6,0.5c-1.5-1.3-1.8-3.1-1.5-5
			C190.5,310.9,190.9,308.8,191.4,305.8z"/>
		<path class="st44" d="M402.5,107.3c-4.4-0.8-6.9-2.6-7.6-6.2c-0.2-1.1-1.2-2.8,0.7-3.4c1.2-0.4,2.6,0.1,3.5,1.2
			C400.9,101.2,401.4,103.9,402.5,107.3z"/>
		<path class="st45" d="M341.8,81.8c2.1,0.3,5.1,0.5,5.3,3c0.2,2.1-2.7,2.6-4.6,2.8c-2.5,0.3-4.9-1.2-5.2-3.4
			C337.1,82.6,339.8,82,341.8,81.8z"/>
		<path class="st46" d="M327.2,79.6c1.8,0.3,4.7-0.1,4.4,2.6c-0.2,2.3-2.8,3-5.1,3c-2.1,0.1-4.7-0.6-4.7-2.6
			C321.8,79.6,325.1,80.1,327.2,79.6z"/>
		<path class="st47" d="M357.2,82.4c1.5,0.6,4.5-0.2,4.4,2c-0.3,3.2-3.5,4-6.3,4.5c-2.3,0.4-2.1-1.3-2.3-2.8
			C352.6,82.9,354.9,82.8,357.2,82.4z"/>
		<path class="st48" d="M276.5,478.7c-0.6,5.6-3.9,6.6-8.8,4.4C269.3,479.7,270.2,474.7,276.5,478.7z"/>
		<path class="st49" d="M406.8,98c-2.6-1.2-5-2.9-5.6-6.1c-0.4-2,1.1-2.1,2.5-2c3.8,0.4,4.2,3.7,5.1,6.4
			C409.2,97.6,408.2,98.1,406.8,98z"/>
		<path class="st50" d="M210.1,310.1c2.4,1.2,4.6,2,6.5,3.3c1.5,1,2.1,2.7,1,4.3c-1.1,1.6-2.7,0.9-4,0.2
			C210.3,316.4,210.3,313.4,210.1,310.1z"/>
		<path class="st51" d="M235.9,343.7c2-3.4,4.9-2.3,7.4-1.3c2.1,0.8,3.9,2.3,6.8,4.2c-6,0.9-10.2-0.8-14.3-3.1
			C235.8,343.5,235.9,343.7,235.9,343.7z"/>
		<path class="st52" d="M408.7,219.8c0-4.8,1.9-8.2,5.5-11.1C416.4,214.5,416,215.3,408.7,219.8z"/>
		<path class="st53" d="M322.5,369.9c-1.4-6.9,3.4-9.6,5.9-13.5C328.3,361.3,327,365.7,322.5,369.9z"/>
		<path class="st54" d="M554.1,195.2c2.6,0,4.2-1.6,5.4-3.8c1-1.9,2.3-3.6,3.4-5.5c0.6-1,1.6-1.4,2.5-0.9c1.2,0.7,0.4,1.6-0.2,2.4
			c-2.9,3.7-4.1,9.2-10.2,9.4C554.3,196.5,553.8,196.1,554.1,195.2z"/>
		<path class="st55" d="M362.6,72.9c-2.4,0-3.8-0.7-3.5-2.5c0.3-2.3,2.2-3.4,4.3-3.2c1.7,0.2,4.5,0.9,4.2,2.6
			C367.2,72.3,363.9,72,362.6,72.9z"/>
		<path class="st56" d="M188.8,269.1c-3.2-3.6-3.2-3.6-2.6-13.4c1.2-0.4,1.7,0.6,2.4,1.1c0.7,0.5,1.3,1,2.4,1.7
			c-5.4,2.7-3.1,6.6-1.9,10.4C189.1,268.9,188.8,269.1,188.8,269.1z"/>
		<path class="st57" d="M223.8,336.2c3.1-0.5,5.7,0,8.4,0.5c1.2,0.2,2.3,0.5,1.9,2.1c-0.3,1.3-1,2.1-2.4,2
			C228.5,340.7,225.3,340.2,223.8,336.2z"/>
		<path class="st58" d="M371.6,84.9c-2-0.3-4.8-0.3-4.4-1.8c0.8-3,4-3.4,6.9-3.4c1.2,0,3.4-0.3,2.9,1.5
			C376.3,83.7,373.9,84.7,371.6,84.9z"/>
		<path class="st46" d="M247.7,395.7c3.6,0.7,5.5,2.8,7.6,4.7c0.9,0.8,1.5,2.1,0.9,3.1c-0.9,1.4-2.3,0.6-3.5,0.2
			C249.2,402.4,248.9,399.1,247.7,395.7z"/>
		<path class="st59" d="M302.4,462.6c-4.4-8.5-4.4-8.5-3.2-11.8C299.1,456,309.2,456.1,302.4,462.6z"/>
		<path class="st44" d="M404.1,113.7c1.9,1.7,3.3,3.9,3.8,6.5c0.4,1.5-0.9,2-2.2,1.9c-3.3-0.3-3.9-2.7-3.9-5.3
			C401.8,115.4,402.1,114,404.1,113.7z"/>
		<path class="st55" d="M272.9,354.7c-0.9,0.7-0.5,4.2-3.2,1.4c-1.8-1.8-4.1-2.7-6.7-1.3c-0.1-0.3-0.1-0.5,0-0.8
			c1.9-2.3,4.6-2.3,7.2-2.8C273.3,350.5,274.8,351.3,272.9,354.7z"/>
		<path class="st60" d="M266.4,476.6c-2.5,3.4-5.4,6-10,4.7C259.7,479.8,260.4,472.9,266.4,476.6z"/>
		<path class="st61" d="M276.3,413.4c5.7-4.4,6.7-4.5,10.9-0.9C283.9,415.4,280.4,415,276.3,413.4z"/>
		<path class="st62" d="M319,374.2c-2.9,3.5-3.2,8-7.1,10.1C310.6,379.1,313.6,374.6,319,374.2z"/>
		<path class="st63" d="M271.7,347.6c3.4-3.7,7.7-4.3,12.2-5.7C281.9,346.8,279.2,348,271.7,347.6z"/>
		<path class="st64" d="M219.5,324c2.5,0.8,4.4,2.3,4.8,5.1c0.2,1.6-1,2.5-2.5,2.4c-3.1-0.3-3.7-3-4.5-5.3
			C216.8,324.3,218.4,324.4,219.5,324z"/>
		<path class="st65" d="M317.4,78.8c-1.8-0.4-3-0.6-4-1c-2-0.8-4.9-0.8-5.1-3.9c-0.1-0.8,0.9-1.1,1.5-0.9c3,1,6.7,0.8,8.3,4.3
			C318.4,78.1,317.8,78.8,317.4,78.8z"/>
		<path class="st55" d="M346.2,272.6c-1.3,4.2-3.9,6.4-5.7,9.2c-0.5,0.8-0.8,1.8-2,0.6c-0.7-0.7-1.9-1.2-0.7-2.2
			C340.3,277.8,341.6,274,346.2,272.6z"/>
		<path class="st66" d="M423.1,192.8c-0.4,4.3-2.8,7.1-7,9.2C416,196.7,419.5,194.8,423.1,192.8z"/>
		<path class="st67" d="M199.5,275.6c1.9,2.3,3.8,4.5,5.6,6.8c0.1,0.1-0.4,0.9-0.8,1.1c-1.8,0.9-3.2-0.1-4.3-1.4
			c-1.4-1.6-2.8-3.4-1.8-5.8C198.3,276,198.9,275.9,199.5,275.6z"/>
		<path class="st68" d="M384.4,79.1c1.6,0.8,4.4,0,4.6,3.2c0.2,2.4-1.6,1.5-2.7,1.6c-2.4,0.1-4.9-0.5-5.3-3.2
			C380.8,79.3,382.9,79.3,384.4,79.1z"/>
		<path class="st69" d="M396.2,116.7c-0.2,0.9-0.1,3-1.3,2.5c-2.1-1-4-2.9-4.4-5.4c-0.2-0.9,0.5-2.8,1.9-2.3
			C394.7,112.2,396.2,113.9,396.2,116.7z"/>
		<path class="st70" d="M399.5,88.1c-1.3-0.9-2.2-1.3-2.8-2c-1.2-1.3-4.4-1.4-3.3-4c0.7-1.6,3-0.3,4.5-0.2c2.9,0.2,2.6,2.2,2.1,4.3
			C400,86.7,399.8,87.1,399.5,88.1z"/>
		<path class="st71" d="M252.9,347c0.3-0.1,0.6-0.2,0.9,0c3.3,1.7,7.2-0.7,10.5,1.5C259.2,352.2,255.8,351.8,252.9,347z"/>
		<path class="st72" d="M297.5,470c-0.7-2.4-0.4-4.9-2.1-6.2c-3.2-2.4-1.3-3.7,1-5.1C295.1,462.4,302.2,465.2,297.5,470z"/>
		<path class="st73" d="M350.5,288.6c0.3,3.5,0.8,7.1-2.1,10.3C345.4,294.6,348.6,291.8,350.5,288.6z"/>
		<path class="st74" d="M213.4,304.8c0,0.5-0.8,1.2-2.4,1.3c-3.1,0.2-3.2-2.3-3.8-4.2c-0.4-1,0-2.1,1.4-1.7
			C210.6,300.8,213.1,300.8,213.4,304.8z"/>
		<path class="st75" d="M191,260c2.1,5.2,5.3,8,9,11.3C192.9,269.1,190.1,265.9,191,260z"/>
		<path class="st76" d="M311,328c-0.4-4.5,0.4-7.3,3.2-9.2c0.7-0.5,1.3-1,2.2-0.3c1,0.8,0.2,1.4-0.3,2.1
			C314.7,322.7,313.2,324.9,311,328z"/>
		<path class="st77" d="M194.7,323.4c0.5,2.5,1.2,4.9,1.5,7.4c0.2,1.3,0,2.8-1.9,2.7c-1.4-0.1-1.8-1.3-1.7-2.5
			c0.3-2.5,0.7-5,1.1-7.6C194,323.4,194.4,323.4,194.7,323.4z"/>
		<path class="st33" d="M70.8,270.2c4.7-1.9,5.5,2.5,8.6,3.9C74.3,275.6,74.3,275.6,70.8,270.2z"/>
		<path class="st78" d="M65.8,279.4c3.1-1.2,6,0,8.9-1.6C70.6,284.2,70.6,284.2,65.8,279.4z"/>
		<path class="st38" d="M71.2,274.9c-1.8-0.6-4.4,2.3-5.1-1.1c-0.2-1-1.2-3.2,1.2-3.6C70.8,269.6,69.9,273.1,71.2,274.9z"/>
		<path class="st79" d="M293.8,400.4c0.3,0.9,0.5,1.3,0.4,1.5c-0.4,2.5-1.1,4.9-3.4,6.4c-1,0.6-1.6-0.8-1.6-1.3
			C289.2,403.8,291.6,402.3,293.8,400.4z"/>
		<path class="st80" d="M297.2,339.2c-2.1,2.7-4.6,4.9-9,5.1C290.3,340.1,293.5,339.4,297.2,339.2z"/>
		<path class="st81" d="M302.7,335.8c2.2-4.8,2.2-4.8,6.6-6C308.4,333.5,307.2,334.6,302.7,335.8z"/>
		<path class="st82" d="M410.5,104.9c-0.8,1.6-0.1,4.4-2.5,4.6c-1.6,0.2-1.3-2-1-3.2c0.4-1.6,0.2-4,2.8-3.8
			C411.3,102.6,410.6,103.9,410.5,104.9z"/>
		<path class="st83" d="M382.2,75.6c-4.5,0.6-4.7,0.6-8.9-2.5C376.1,71.9,378.4,72.5,382.2,75.6z"/>
		<path class="st84" d="M336.6,284.3c-0.7,4.7-3.6,6.7-6.2,8.8C331.2,289.8,333,287.1,336.6,284.3z"/>
		<path class="st85" d="M286.4,474c1.5,2.4,0.1,5.4,1.2,7.9c0.5,1-0.6,1.4-1.4,1.5c-1.3,0.2-1.2-0.7-1.2-1.6c0-2.6,0-5.2,0-7.8
			C285.4,474,285.9,474,286.4,474z"/>
		<path class="st86" d="M356.4,252c1,4.7,0.5,7.9-1.4,10.9C354.3,259.6,354.4,256.3,356.4,252z"/>
		<path class="st87" d="M353,270.9c0.4,4,0.9,7.2-1.6,10.7C350.3,277.6,350.8,274.5,353,270.9z"/>
		<path class="st55" d="M320.6,68.4c0,2.1,0,3.8,0,5.7C315.8,71,315.8,71,320.6,68.4z"/>
		<path class="st88" d="M303.7,390.2c-0.2,2.8-1,5.4-4,7.2C299.3,393.7,301.7,392,303.7,390.2z"/>
		<path class="st89" d="M394,107.7c0.6-0.2,0.9-0.5,1.1-0.4c1.5,1,3.9,1,4.5,3.1c0.1,0.3-1,1.4-1.2,1.3
			C396.6,110.8,394.9,109.7,394,107.7z"/>
		<path class="st90" d="M313.7,69.5c1.9-3.5,3.2-5.7,6.8-6.7C319.4,66.2,317.2,67.5,313.7,69.5z"/>
		<path class="st69" d="M399.1,126.4c0.2,1-0.2,1.6-1.2,1.7c-1.9,0.2-2.7-0.9-2.9-2.6c-0.1-0.7-0.5-1.8,0.9-1.7
			C397.4,124,398.7,124.7,399.1,126.4z"/>
		<path class="st91" d="M554.1,195.2c0.3,0.6,0.6,1.1,1,1.7c-2.8,0.6-5.3-0.1-7.4-2.2C549.8,194.8,551.9,195,554.1,195.2z"/>
		<path class="st92" d="M428.4,182.7c-0.3,1.6-0.4,3.2-2.2,3.2c-1.6,0-0.9-1.4-0.9-2.3c0-1.1-0.3-2.5,1.5-2.6
			C428.1,181,428.4,181.9,428.4,182.7z"/>
		<path class="st93" d="M365.9,38.1c1.6,0.3,1,2.1,1.9,2.8c-0.2,1.6-0.3,3.1-0.5,4.9c-1.8-0.5-3.1-1.4-2-3.5
			C366,40.9,366.4,39.6,365.9,38.1z"/>
		<path class="st94" d="M400.7,226.8c-1.8,2-3.9,3.5-7.4,4.6C395.5,228.1,397.8,227,400.7,226.8z"/>
		<path class="st95" d="M340.9,328.3c0.2,2.3,0.7,4.7-1.5,7.6C338.7,332.5,338.7,330.3,340.9,328.3z"/>
		<path class="st96" d="M283.2,477.3c-0.8,2.8,1.1,5.2-1.6,6.6c-0.3,0.2-1.3,0-1.3-0.1C280.1,481.5,280.8,479.6,283.2,477.3z"/>
		<path class="st97" d="M335.2,344.7c0.4,0.7,0.6,0.9,0.5,1c-0.6,1.8-0.5,4-2.2,5.3c-0.2,0.1-1.2-0.4-1.2-0.6
			C332.5,348.2,333.4,346.4,335.2,344.7z"/>
		<path class="st98" d="M64.9,271.8c-1,1.2-0.5,3.5-2.7,3.7c-0.8,0.1-2-0.3-1.6-1.2c0.7-1.4,1.2-3.1,3.1-3.5
			C64.3,270.7,64.9,271,64.9,271.8z"/>
		<path class="st99" d="M276.9,353.3c1.3,0.2,1.7,1.3,2.1,2.3c0.3,1-0.4,1.5-1.3,1.5c-1,0-2.1-0.1-2.2-1.4
			C275.5,354.8,275.8,353.8,276.9,353.3z"/>
		<path class="st100" d="M373.1,50.2c-2.9-0.5-4.1-1.6-4.1-3.5c0-0.5,0.9-1.4,1.1-1.4C372,46,371.9,48,373.1,50.2z"/>
		<path class="st101" d="M411.7,127.6c-2.5-0.1-3.9,0.7-5.4-0.1c0,0,0.2-0.9,0.5-1.2C408.1,125.1,409.4,125.6,411.7,127.6z"/>
		<path class="st102" d="M94.4,160.9c-0.1,5.1-1.7,9.2-6.9,11c-5.2,1.8-13.8-0.6-16.6-4.2c-1-1.2-0.9-2.5-0.6-3.7
			c0.6-2.8,1.2-5.5,2-8.2c2.5-7.6,6.5-10.6,12.8-9.7c5.1,0.7,9.1,6.5,9.3,13.4C94.4,159.9,94.4,160.4,94.4,160.9z"/>
		<path class="st103" d="M267.7,244.3c-3.7,0-7.4-0.3-11,0.1c-16,1.7-29.3-5.6-43.2-11.8c-12.7-5.6-23.8-13.8-35.7-20.8
			c-2.1-1.2-4-2.9-5.8-4.7c-6.6-6.6-6.4-11,0.8-17.1c6.8-5.7,14.7-9.6,22.3-14.1c14.8-8.8,31.1-11.3,47.9-14
			c22.2-3.6,43.8-3.4,65.2,3c13.7,4.1,26.1,11.3,37.2,20.6c5.4,4.5,10.1,9.6,14.8,14.7c4,4.3,4,7.1-0.1,11.6
			c-10.3,11.2-23.7,17.3-37.4,23.2C305.1,242.7,286.8,245.6,267.7,244.3z"/>
		<path class="st104" d="M472.2,153.6c-0.3,11-4.6,17.2-12.4,19.1c-11.3,2.6-20.8-5.5-19.8-16.9c0.7-7.7,1.4-15.4,10.6-18.5
			c7.1-2.4,12.1-1.4,16.9,4.4C470.5,145.4,471.8,149.8,472.2,153.6z"/>
		<path class="st0" d="M541.6,223.6c-3.1,2.2-5.7,4.6-6.6,8.3c-0.1,0.6-0.9,1.5-1.2,1.5c-7.6-1-6.2,5.6-6.4,9
			c-0.3,5.5-1.4,11.1,0.4,16.7c0.6,1.9,1.1,5-2.2,5.8c-3.5,0.9-6.8-0.6-9.2-2.8c-1.7-1.5,1.6-2.7,2.3-4.4c-2.5-1.2-4.6,0.8-7-0.1
			c-2.4-0.9-4.7-1.4-5.6-4.2c-0.4-1.2-1.2-2.1-2.3-2.5c-4.4-1.4-8-3.5-9-8.6c-0.3-1.7-2.1-1.4-3.4-1.4c-18.1,0-36.3,0-54.4,0
			c-2.9,0-5.8,1.5-8.5-0.8c-0.9-0.7-2.3-1.2-2.3-2.4c0.1-4-2-5.2-5.6-5c-2,0.1-2.8-1.8-3.2-3.4c-0.5-2,1.4-2.9,2.7-2.9
			c5.3-0.2,5.6-3.9,5.9-7.8c0.1-1.8,0.4-3.6,0.8-5.4c0.3-1.2-0.2-3,1.7-3.1c1.7-0.1,3.2,1.3,3.2,2.6c0,5.9,3.9,6.6,8.4,7.5
			c3,0.7,6.6,1.4,8.6,4.6c0.3,0.5,1.3,1,1.7,0.9c5.1-2.2,10.4,1.2,15.6-0.8c3.2-1.3,6.8-1.4,10.2-1.9c1-0.2,2.2-0.1,2.5,1
			c2.2,7.2,10.6,5.7,14.7,10.4c1.3,1.5,3.2-0.2,4.1-1.6c1.8-3,4.3-3,6.8-1.6c2.9,1.6,5.4,1.6,8.4,0.1c2.3-1.1,5.1-1.4,7.7-1.6
			c6.2-0.6,11.2-4.6,17.1-6C538.7,223.4,539.9,222.6,541.6,223.6z"/>
		<path class="st0" d="M488,249.5c-4.4-0.3-8.8,3.3-13.9-0.2C479.2,246.4,483.6,249.7,488,249.5z"/>
		<path class="st0" d="M459.3,249.7c3.3-2.7,6.1-0.1,8.9,0.1C465.3,249.6,462.5,251.8,459.3,249.7z"/>
		<path class="st105" d="M274.5,365.1c4.5,3.3,6.3,9.7,4.1,14.1c-0.5,0.9-1.5,2-2.4,2.2c-1.3,0.2-1.7-1.3-2.2-2.2
			C271.3,374.4,272.3,369.8,274.5,365.1z"/>
		<path class="st106" d="M288,380.2c-2.6-0.5-3.5-2.6-3.2-4.4c0.4-2.8,2.5-4.7,5.4-4.8c2.4-0.1,2.9,1.9,2.8,3.8
			C292.9,378.1,290.3,379.1,288,380.2z"/>
		<path class="st49" d="M283.7,391.8c-2.2-0.1-2.4-1.8-2.6-3.4c-0.2-2.4,1-4.3,3.3-4.4c2-0.2,4,0.9,3.9,3.4
			C288.2,390.1,286.1,391.2,283.7,391.8z"/>
		<path class="st107" d="M272.2,386c1.7,0.9,4.8,0.2,5.1,3.4c0.2,2.5-1.6,3.1-3.5,3.4c-2.7,0.4-4-1.2-4.1-3.8
			C269.7,387.4,269.9,386,272.2,386z"/>
		<path class="st108" d="M265.9,369.7c0.3,2.1,0.4,3.6-2.2,3.5c-2.6-0.1-3.4-1.7-3.5-3.8c-0.1-1.8,0.9-3.3,2.9-3.2
			C265.3,366.4,267.2,367.2,265.9,369.7z"/>
		<path class="st109" d="M264.4,377c1.2,1.5,3.3,2.5,2.9,5.3c-0.2,1.6-0.9,2.6-2.4,2.3c-2.4-0.4-3.7-2-3.3-4.5
			C261.9,378.6,262.1,377,264.4,377z"/>
		<path class="st110" d="M266.4,362.4c-2.2,0.1-3.2-0.9-3-2.6c0.1-1.5,0.7-3.2,2.7-2.8c1.6,0.3,3.1,1.8,3.2,3.4
			C269.5,362.3,267.4,362,266.4,362.4z"/>
		<path class="st111" d="M287.3,362.9c0.2,1.6-0.6,2.7-2,2.9c-1.5,0.2-2.8-1.4-2.7-2.3c0.1-1.4,1.7-2.3,3.2-2.6
			C287.3,360.6,287,362.1,287.3,362.9z"/>
		<path class="st112" d="M85.2,155.1c-2.9-0.6-3.3,1.6-3.4,3.8c-0.1,3.2,2,2.8,4.1,2.3c1.7-0.4,3.6-0.9,4.2,1.2
			c0.6,2.2-1.2,3.1-3,3.8c-4.1,1.5-10.6,0.2-12.4-2.5c-1.9-2.7-0.3-9.7,2.9-12.8c3-2.9,8-2.7,10.8,0.2c0.9,0.9,1.3,2,0.6,3.1
			C88.2,155.6,87,155.8,85.2,155.1z"/>
		<path class="st0" d="M216.3,172.2c0.6,1.4,1,2.7,1.7,3.8c0.7,1.1,1.5,2.3,3.1,2.1c1.4-0.2,1.6-1.4,2.2-2.5
			c1.2-2.1,0.5-5.6,3.4-6.2c4.7-0.9,9.6-1.2,14.4-1.5c1.5-0.1,1.6,1.4,1.9,2.5c0.6,2.5,2.1,3.7,4.6,3.7c2.2,0,4-0.8,4.5-3.1
			c1.6-6.3,6.8-6.4,11.8-6.9c1.3-0.1,2.1,0.2,2.6,1.6c0.5,1.4,1.3,2.7,2.3,3.8c2.3,2.4,4.4,4.4,7.2-0.1c2.9-4.6,13.2-5.9,17.3-3.1
			c1.1,0.8,0.6,1.8,0.7,2.7c0.8,4.2,4,6.3,7,3.5c5.7-5.3,10.4-1.8,15.2,0.7c2.9,1.5,6.9,2.4,4.2,7.6c-1.3,2.4,0.4,4.5,3.6,4.3
			c0.2,0,0.3,0,0.5,0c13.5-3.9,20.1,6,27.7,13.9c0.5,0.5,0.8,1,1.3,1.5c5.8,6.8,5.8,6.9-0.9,12.6c-6,5.1-12.9,8.9-19.8,12.3
			c-20.1,9.8-41.1,16.2-63.9,13.7c-3.8-0.4-7.6,0.2-11.4,0.5c-8.1,0.7-15.8,0-23.5-3.2c-15.8-6.6-31.4-13.5-45.2-24
			c-4.9-3.7-10.3-6.6-15.1-10.5c-2.8-2.2-3.1-3.5-0.1-6c6.8-5.7,14.6-9.8,22.2-14.2c2.8-1.6,3.9,0.9,5.7,1.5
			c1.5,0.5,2.7,2.1,4.5,1.1c1.9-1.1,1.2-2.9,0.9-4.5c-0.5-2.5,0.2-4.1,2.8-4.9C211.7,174.2,214,173.1,216.3,172.2z"/>
		<path class="st113" d="M268.5,163.8c2.2,0.1,4.3,0.2,6.5,0.3C271.8,169.1,271.7,169.1,268.5,163.8z"/>
		<path class="st114" d="M245,167.1c2-0.4,3.6-0.7,5.6-1.1c-0.5,2.2-1.6,3.8-3.1,4.2C246.3,170.4,245.5,168.8,245,167.1z"/>
		<path class="st115" d="M296,167.3c2.5-0.6,4.1,0.6,6.6,1C299.7,169.7,297.3,172.1,296,167.3z"/>
		<path class="st116" d="M222.9,170c-1.5,2.2-1.1,4.2-3,4.2c-0.6,0-1.8-1.5-1.7-2C218.8,170.5,220.5,170.9,222.9,170z"/>
		<path class="st117" d="M330,180.8c-1.8-0.1-3.9,1.5-5-1.1c-0.2-0.4,0.1-1.3,0.3-1.4C327.5,177.9,328.4,179.8,330,180.8z"/>
		<path class="st118" d="M444.9,155.5c0.1-10.8,5.5-15.8,14.9-14c1.9,0.4,3.5,1.1,4.7,2.5c3.3,3.7,3.5,15.1,0.4,18.9
			c-3.7,4.6-8.5,5.9-14.2,3.9C446.2,165.3,444.9,162.6,444.9,155.5z"/>
		<path class="st119" d="M233.5,222.6c-2.4,1.3-4.6,2.4-6.8,3.6c-1.2,0.6-2.5,1.6-3.5,0.3c-1-1.3-0.3-3.1,0.9-4
			c3.3-2.4,6.8-4.6,10.4-6.6c1.7-0.9,3.4,0.2,4.1,1.7c1.6,3.4,4,6.5,4.7,10.3c0.2,1.3,1.2,2.5-0.3,3.5c-1.5,1-2.9,0.3-4.1-0.7
			c-1.9-1.7-2.7-4.1-3.8-6.3C234.7,223.6,234.6,222.5,233.5,222.6z"/>
		<path class="st120" d="M252.5,233c1.8-5.4,6.1-8.2,10.3-11c1.9-1.3,3.7-0.3,5.3,1.1c3.1,2.8,3.9,6.9,6.2,10.1
			c0.7,1,0.2,1.9-0.5,2.6c-0.9,0.9-1.9,1.1-3.2,0.6c-2.4-0.9-3.8-2.9-4.4-5.1c-1.4-5.1-3.5-4.2-6.4-1.3
			C257.9,231.9,255.6,233.2,252.5,233z"/>
		<path class="st121" d="M315.1,225.6c0-4.9,3-8,5.1-11.5c0.4-0.6,1.2-1.3,2-1.4c6.2-0.8,12.1,0.7,18,2.1c0.8,0.2,1.1,1.2,0.9,2.1
			c-0.2,1-1.1,1.1-1.9,1.2c-4,0.3-7.9,1.4-11.9,0c-2.5-0.9-4.2-0.9-5.6,2C320.4,222.6,318.1,224.5,315.1,225.6z"/>
		<path class="st122" d="M282.3,233.2c1.1-6.4,5.6-9,9-12.4c1.2-1.2,2.9-0.3,4.1,0.6c2.5,1.7,4.8,3.5,7.2,5.3c1,0.7,1.9,1.6,1.6,2.8
			c-0.5,1.7-2.1,1.4-3.4,1.3c-1-0.1-2.2-0.1-2.8-0.7c-4.5-4.4-8.2-2.4-12,1C285.2,231.8,284,232.2,282.3,233.2z"/>
		<path class="st123" d="M199.1,214.6c3.2-5.4,8.6-6.7,13.3-9c2-1,3.2,0.6,2.9,2.6c-0.6,4.9-0.7,9.8,0,15.9
			c-4.8-3.9-3.3-8.6-4.5-12.5C207,212.8,203.9,216,199.1,214.6z"/>
		<path class="st124" d="M178.9,200.3c2.8-5.7,7.7-6.3,12.3-7.2c3.1-0.6,3,1.8,2.8,3.9c-0.5,5-2.7,10-0.2,15.2
			c-4.5-1.9-4.9-5.7-4.6-9.4c0.4-4.1-0.7-5-4.5-3.4C183.2,200.1,181.2,200,178.9,200.3z"/>
		<path class="st120" d="M457.3,145.9c1.8,0.1,4.3-0.9,4.8,1.9c0.4,2.4-1.8,2.8-3.5,3.3c-2,0.6-4.1,1.7-3.7,4
			c0.4,2.4,2.7,1.2,4.2,1.2c1.5,0,2.7,0.5,2.9,2.1c0.3,1.7-1,2.2-2.4,2.7c-3.3,1.1-6.7,1.6-9.4-1c-3-2.8-2.1-6.5-0.9-9.8
			C450.5,146.7,453.4,145.2,457.3,145.9z"/>
	</g>
</g>
</svg>
